<svg width="20" height="20" viewBox="0 0 20 20" fill="none" xmlns="http://www.w3.org/2000/svg">
<g clip-path="url(#clip0_205_165)">
<path d="M17.0692 2.92834C15.1947 1.05402 12.7072 0.0159356 10.0589 0.000468622C10.0486 0.000117099 10.0383 -7.81909e-05 10.028 7.80414e-05C4.51371 -0.0215211 0 4.44301 0 9.99859C0 15.5246 4.47195 19.9975 9.99887 19.9975C12.6629 19.9975 15.1771 18.9608 17.0692 17.0689C20.9766 13.1613 20.9772 6.83641 17.0692 2.92834ZM10.5847 18.3039V14.7223C11.4956 14.7819 12.3811 14.9803 13.2161 15.307C12.5383 16.4439 11.6481 17.4661 10.5847 18.3039ZM10.5847 13.5485V10.5845H14.69C14.6142 11.8563 14.2937 13.1034 13.7638 14.263C12.7593 13.8548 11.6878 13.6122 10.5847 13.5485ZM10.5847 9.41272V6.44868C11.6878 6.38502 12.7593 6.14243 13.7638 5.73423C14.2937 6.89371 14.6142 8.14091 14.6901 9.41272H10.5847ZM10.5847 5.27491V1.69328C11.6481 2.53108 12.5383 3.55331 13.2161 4.69021C12.3811 5.01689 11.4956 5.21531 10.5847 5.27491ZM12.0584 1.41468C13.4067 1.73816 14.6354 2.37176 15.6649 3.23573C15.2311 3.59987 14.7672 3.91866 14.2793 4.18984C13.6843 3.1698 12.9365 2.23135 12.0584 1.41468ZM9.413 1.7557V5.27491C8.52532 5.21683 7.66155 5.02709 6.8454 4.71513C7.50837 3.59635 8.37663 2.58787 9.413 1.7557ZM5.77771 4.22233C5.26819 3.9442 4.78422 3.61459 4.33279 3.23573C5.389 2.34942 6.65479 1.70528 8.04425 1.38996C7.14529 2.22104 6.38174 3.17933 5.77771 4.22233ZM9.413 6.44872V9.41276H5.38611C5.46137 8.15056 5.77759 6.91265 6.30042 5.76064C7.2857 6.15278 8.33417 6.38642 9.413 6.44872ZM9.413 10.5845V13.5485C8.33417 13.6108 7.2857 13.8444 6.30046 14.2366C5.77763 13.0846 5.46141 11.8466 5.38615 10.5845H9.413ZM9.413 14.7223V18.2415C8.37663 17.4094 7.50837 16.4009 6.8454 15.2821C7.66155 14.9701 8.52532 14.7804 9.413 14.7223ZM8.04425 18.6073C6.65479 18.292 5.389 17.6478 4.33279 16.7615C4.78422 16.3826 5.26819 16.053 5.77771 15.7749C6.38174 16.8179 7.14529 17.7762 8.04425 18.6073ZM14.2794 15.8074C14.7672 16.0785 15.2311 16.3973 15.665 16.7615C14.6355 17.6255 13.4067 18.2591 12.0585 18.5825C12.9365 17.7659 13.6843 16.8274 14.2794 15.8074ZM14.8203 14.7669C15.4246 13.4509 15.7863 12.0317 15.8636 10.5845H18.8061C18.6705 12.6434 17.8263 14.5117 16.515 15.9469C15.9875 15.4927 15.4199 15.0977 14.8203 14.7669ZM18.8061 9.41272H15.8636C15.7863 7.9655 15.4246 6.54633 14.8203 5.23031C15.4199 4.89944 15.9875 4.50453 16.515 4.05024C17.8263 5.48551 18.6705 7.35385 18.8061 9.41272ZM3.48273 4.05024C4.02865 4.52039 4.61776 4.92639 5.24054 5.26417C4.64557 6.5707 4.28924 7.97789 4.21257 9.41272H1.19166C1.32723 7.35385 2.17147 5.48551 3.48273 4.05024ZM1.19166 10.5845H4.21257C4.28924 12.0193 4.64557 13.4265 5.24054 14.733C4.61776 15.0708 4.02865 15.4768 3.48273 15.9469C2.17147 14.5117 1.32723 12.6434 1.19166 10.5845Z" fill="#333333"/>
</g>
<defs>
<clipPath id="clip0_205_165">
<rect width="20" height="20" fill="white"/>
</clipPath>
</defs>
</svg>
