<svg width="30" height="30" viewBox="0 0 30 30" fill="none" xmlns="http://www.w3.org/2000/svg">
<path d="M3 4C2.44772 4 2 4.44772 2 5V7C2 7.55228 2.44772 8 3 8H5C5.55228 8 6 7.55228 6 7V5C6 4.44772 5.55228 4 5 4H3Z" fill="white"/>
<path d="M8.75 5.25C8.33579 5.25 8 5.58579 8 6C8 6.41421 8.33579 6.75 8.75 6.75H26.25C26.6642 6.75 27 6.41421 27 6C27 5.58579 26.6642 5.25 26.25 5.25H8.75Z" fill="white"/>
<path d="M2 14C2 13.4477 2.44772 13 3 13H5C5.55228 13 6 13.4477 6 14V16C6 16.5523 5.55228 17 5 17H3C2.44772 17 2 16.5523 2 16V14Z" fill="white"/>
<path d="M8.75 14.25C8.33579 14.25 8 14.5858 8 15C8 15.4142 8.33579 15.75 8.75 15.75H26.25C26.6642 15.75 27 15.4142 27 15C27 14.5858 26.6642 14.25 26.25 14.25H17.5H8.75Z" fill="white"/>
<path d="M2 23C2 22.4477 2.44772 22 3 22H5C5.55228 22 6 22.4477 6 23V25C6 25.5523 5.55228 26 5 26H3C2.44772 26 2 25.5523 2 25V23Z" fill="white"/>
<path d="M8.75 23.25C8.33579 23.25 8 23.5858 8 24C8 24.4142 8.33579 24.75 8.75 24.75H26.25C26.6642 24.75 27 24.4142 27 24C27 23.5858 26.6642 23.25 26.25 23.25H8.75Z" fill="white"/>
</svg>
