<svg width="18" height="18" viewBox="0 0 18 18" fill="none" xmlns="http://www.w3.org/2000/svg">
<path d="M8.53094 1.55895C10.8261 1.55895 11.0859 1.55895 11.952 1.60225C12.7747 1.64556 13.2511 1.77547 13.5542 1.90538C13.944 2.0786 14.2471 2.25182 14.5502 2.55495C14.8534 2.85808 15.0266 3.1179 15.1998 3.55095C15.3297 3.85407 15.4596 4.28712 15.5029 5.1532C15.5462 6.06259 15.5462 6.32241 15.5462 8.57423C15.5462 10.8694 15.5462 11.1292 15.5029 11.9953C15.4596 12.818 15.3297 13.2944 15.1998 13.5975C15.0266 13.9873 14.8534 14.2904 14.5502 14.5935C14.2471 14.8967 13.9873 15.0699 13.5542 15.2431C13.2511 15.373 12.8181 15.5029 11.952 15.5462C11.0426 15.5895 10.7828 15.5895 8.53094 15.5895C6.23581 15.5895 5.97598 15.5895 5.10989 15.5462C4.28711 15.5029 3.81077 15.373 3.50764 15.2431C3.11791 15.0699 2.81477 14.8967 2.51164 14.5935C2.20851 14.2904 2.03529 14.0306 1.86208 13.5975C1.73216 13.2944 1.60226 12.8614 1.55895 11.9953C1.51565 11.0859 1.51565 10.8261 1.51565 8.57423C1.51565 6.27911 1.51565 6.01928 1.55895 5.1532C1.60226 4.33042 1.73216 3.85407 1.86208 3.55095C2.03529 3.16121 2.20851 2.85808 2.51164 2.55495C2.81477 2.25182 3.0746 2.0786 3.50764 1.90538C3.81077 1.77547 4.24381 1.64556 5.10989 1.60225C6.01928 1.55895 6.27912 1.55895 8.53094 1.55895ZM8.53094 0C6.23581 0 5.93268 -6.59903e-07 5.02329 0.0433036C4.1139 0.0866078 3.50764 0.216521 2.94468 0.433042C2.38173 0.649563 1.90538 0.952691 1.42903 1.42904C0.952688 1.90538 0.649563 2.38173 0.433042 2.94469C0.216521 3.50764 0.0866111 4.1139 0.0433069 5.02329C2.64366e-06 5.93268 0 6.23581 0 8.53093C0 10.8261 2.64366e-06 11.1292 0.0433069 12.0386C0.0866111 12.948 0.216521 13.5542 0.433042 14.1172C0.649563 14.6801 0.952688 15.1565 1.42903 15.6328C1.90538 16.1092 2.38173 16.4123 2.94468 16.6288C3.50764 16.8453 4.1139 16.9753 5.02329 17.0186C5.93268 17.0619 6.23581 17.0619 8.53094 17.0619C10.8261 17.0619 11.1292 17.0619 12.0386 17.0186C12.948 16.9753 13.5542 16.8453 14.1172 16.6288C14.6801 16.4123 15.1565 16.1092 15.6328 15.6328C16.1092 15.1565 16.4123 14.6801 16.6288 14.1172C16.8453 13.5542 16.9753 12.948 17.0186 12.0386C17.0619 11.1292 17.0619 10.8261 17.0619 8.53093C17.0619 6.23581 17.0619 5.93268 17.0186 5.02329C16.9753 4.1139 16.8453 3.50764 16.6288 2.94469C16.4123 2.38173 16.1092 1.90538 15.6328 1.42904C15.1565 0.952691 14.6801 0.649563 14.1172 0.433042C13.5542 0.216521 12.948 0.0866078 12.0386 0.0433036C11.1725 -6.59903e-07 10.8694 0 8.53094 0Z" fill="#AD2131"/>
<path d="M8.53094 4.15725C6.1059 4.15725 4.15721 6.10594 4.15721 8.53097C4.15721 10.956 6.1059 12.9047 8.53094 12.9047C10.956 12.9047 12.9047 10.956 12.9047 8.53097C12.9047 6.10594 10.956 4.15725 8.53094 4.15725ZM8.53094 11.3457C6.97199 11.3457 5.67286 10.0899 5.67286 8.48767C5.67286 6.92872 6.92868 5.62959 8.53094 5.62959C10.0899 5.62959 11.389 6.88541 11.389 8.48767C11.389 10.0899 10.1332 11.3457 8.53094 11.3457Z" fill="#AD2131"/>
<path d="M14.1172 3.98401C14.1172 4.54697 13.6408 5.02331 13.0779 5.02331C12.5149 5.02331 12.0386 4.54697 12.0386 3.98401C12.0386 3.42106 12.5149 2.94471 13.0779 2.94471C13.6408 2.94471 14.1172 3.42106 14.1172 3.98401Z" fill="#AD2131"/>
</svg>
