<svg width="21" height="13" viewBox="0 0 21 13" fill="none" xmlns="http://www.w3.org/2000/svg">
<path fill-rule="evenodd" clip-rule="evenodd" d="M18.2517 0H1.75873C0.788965 0 0 0.788555 0 1.75781V11.0156C0 11.5964 0.283429 12.112 0.719085 12.4323C0.728664 12.4399 0.738675 12.4467 0.748698 12.4535L0.753595 12.4568C1.03874 12.6561 1.38517 12.7734 1.75873 12.7734H18.2517C18.6251 12.7734 18.9715 12.6562 19.2566 12.457C19.2584 12.4558 19.2602 12.4545 19.262 12.4533C19.2719 12.4466 19.2819 12.4398 19.2914 12.4323C19.727 12.112 20.0104 11.5964 20.0104 11.0156V1.75781C20.0104 0.788555 19.2214 0 18.2517 0ZM1.17248 1.75781V11.0156C1.17248 11.0592 1.17764 11.1016 1.18671 11.1424L7.21735 6.3407L1.1828 1.65039C1.17632 1.68527 1.17248 1.72109 1.17248 1.75781ZM8.92179 7.67043L8.16855 7.08164L2.4918 11.6016H17.5186L11.8419 7.08164L11.0887 7.67043C10.7697 7.91973 10.3875 8.04438 10.0052 8.04438C9.62297 8.04438 9.24075 7.91973 8.92179 7.67043ZM18.8276 1.65039L12.7931 6.3407L18.8237 11.1424C18.8328 11.1016 18.8379 11.0592 18.8379 11.0156V1.75781C18.8379 1.72109 18.8341 1.68527 18.8276 1.65039ZM2.47707 1.17188L8.52506 5.87262L9.64404 6.7473C9.85669 6.91352 10.1537 6.91355 10.3664 6.7473L11.4841 5.87363L17.5333 1.17188H2.47707Z" fill="#333333"/>
</svg>
