<svg width="21" height="20" viewBox="0 0 21 20" fill="none" xmlns="http://www.w3.org/2000/svg">
<path d="M17.7107 20C19.0077 20 20.0629 18.9403 20.0629 17.6378V14.4882C20.0629 14.1494 19.8462 13.8487 19.5248 13.7414L14.8091 12.1666C14.5782 12.0895 14.3249 12.1234 14.1225 12.2582L12.1171 13.5944C9.96487 12.5738 7.42113 10.0539 6.40937 7.941L7.74582 5.93738C7.88074 5.73507 7.91462 5.48173 7.83752 5.25108L6.26189 0.537848C6.15449 0.216588 5.8536 0 5.51468 0H2.36343C1.06024 0 0 1.05465 0 2.35102C0 6.70152 1.97919 11.1666 5.43012 14.6013C8.87727 18.0322 13.3534 20 17.7107 20ZM2.36343 1.5748H4.9473L6.22093 5.38457L4.85922 7.42604C4.71531 7.64179 4.6869 7.91449 4.78328 8.15522C5.30717 9.46425 6.35559 10.9365 7.73536 12.3009C9.10605 13.6562 10.5863 14.6927 11.9035 15.2192C12.1443 15.3155 12.4172 15.2871 12.633 15.1433L14.6756 13.7823L18.4873 15.0553V17.6378C18.4873 18.0793 18.1462 18.4252 17.7107 18.4252C9.41697 18.4252 1.57562 10.6134 1.57562 2.35102C1.57562 1.91575 1.92168 1.5748 2.36343 1.5748Z" fill="#333333"/>
</svg>
