<svg width="19" height="15" viewBox="0 0 19 15" fill="none" xmlns="http://www.w3.org/2000/svg">
<path d="M0 13.0201C1.70268 14.0579 3.69725 14.6712 5.83776 14.6712C12.9404 14.6712 16.9295 8.86877 16.6863 3.6796C17.416 3.16068 18.0971 2.50024 18.5835 1.74545C17.9025 2.02849 17.1727 2.21719 16.3944 2.31154C17.1727 1.8398 17.8052 1.13218 18.0484 0.283045C17.3187 0.707614 16.4917 1.03784 15.616 1.17936C14.9349 0.471743 13.9133 0 12.8431 0C10.362 0 8.56205 2.21719 9.14583 4.52873C5.98371 4.38721 3.16212 2.92481 1.26485 0.660441C0.243243 2.31154 0.72972 4.48156 2.4324 5.61375C1.79998 5.61375 1.2162 5.42505 0.681073 5.142C0.632425 6.84028 1.89727 8.4442 3.7459 8.8216C3.21077 8.96312 2.62699 9.01029 2.04322 8.86877C2.5297 10.3312 3.94049 11.4162 5.59452 11.4162C4.03778 12.6899 2.04322 13.256 0 13.0201Z" fill="#AD2131"/>
</svg>
