<svg width="25" height="25" viewBox="0 0 25 25" fill="none" xmlns="http://www.w3.org/2000/svg">
<path d="M12.3218 12.0426C13.9762 12.0426 15.4086 11.4492 16.5794 10.2785C17.7497 9.10795 18.3433 7.67573 18.3433 6.02111C18.3433 4.36706 17.7499 2.93464 16.5792 1.76372C15.4084 0.593375 13.976 0 12.3218 0C10.6672 0 9.23493 0.593375 8.0644 1.76391C6.89386 2.93445 6.30029 4.36687 6.30029 6.02111C6.30029 7.67573 6.89386 9.10814 8.0644 10.2787C9.23532 11.449 10.6677 12.0426 12.3218 12.0426ZM9.10047 2.79979C9.99863 1.90162 11.0523 1.46503 12.3218 1.46503C13.5911 1.46503 14.6449 1.90162 15.5433 2.79979C16.4415 3.69815 16.8782 4.75196 16.8782 6.02111C16.8782 7.29064 16.4415 8.34425 15.5433 9.24261C14.6449 10.141 13.5911 10.5776 12.3218 10.5776C11.0526 10.5776 9.99902 10.1408 9.10047 9.24261C8.20211 8.34444 7.76532 7.29064 7.76532 6.02111C7.76532 4.75196 8.20211 3.69815 9.10047 2.79979Z" fill="white"/>
<path d="M22.8578 19.222C22.8241 18.7349 22.7558 18.2035 22.6553 17.6423C22.5538 17.077 22.4231 16.5426 22.2667 16.0541C22.105 15.5492 21.8855 15.0506 21.6137 14.5728C21.3319 14.0769 21.0008 13.6451 20.6293 13.2898C20.2407 12.918 19.7651 12.6191 19.215 12.4011C18.6668 12.1843 18.0593 12.0744 17.4095 12.0744C17.1543 12.0744 16.9075 12.1791 16.4308 12.4894C16.1375 12.6808 15.7943 12.902 15.4114 13.1467C15.0839 13.3554 14.6402 13.5509 14.0922 13.7279C13.5576 13.9009 13.0148 13.9886 12.4788 13.9886C11.9432 13.9886 11.4004 13.9009 10.8654 13.7279C10.318 13.5511 9.87414 13.3556 9.54722 13.1469C9.16785 12.9045 8.82453 12.6832 8.52679 12.4893C8.05053 12.1789 7.80372 12.0742 7.54851 12.0742C6.89849 12.0742 6.29119 12.1843 5.74321 12.4013C5.19351 12.619 4.71763 12.9178 4.32872 13.29C3.95717 13.6455 3.62606 14.0771 3.34453 14.5728C3.07312 15.0506 2.85339 15.549 2.69165 16.0543C2.53544 16.5427 2.40478 17.077 2.30331 17.6423C2.20261 18.2027 2.13451 18.7343 2.10075 19.2226C2.06757 19.7 2.05078 20.1968 2.05078 20.6989C2.05078 22.0039 2.46563 23.0603 3.28369 23.8395C4.09164 24.6083 5.16052 24.9982 6.46075 24.9982H18.4984C19.7982 24.9982 20.8671 24.6083 21.6753 23.8395C22.4935 23.0609 22.9084 22.004 22.9084 20.6987C22.9082 20.1949 22.8912 19.6981 22.8578 19.222ZM20.6651 22.778C20.1313 23.2862 19.4225 23.5332 18.4982 23.5332H6.46075C5.53626 23.5332 4.82749 23.2862 4.29382 22.7782C3.77025 22.2799 3.51581 21.5995 3.51581 20.6989C3.51581 20.2304 3.53126 19.7679 3.56216 19.3238C3.5923 18.8882 3.6539 18.4097 3.74527 17.9012C3.83548 17.399 3.95031 16.9276 4.08687 16.501C4.21791 16.0919 4.39662 15.6867 4.61826 15.2965C4.82978 14.9246 5.07316 14.6055 5.34171 14.3483C5.59291 14.1078 5.90953 13.911 6.28261 13.7634C6.62765 13.6268 7.01541 13.552 7.43636 13.5408C7.48767 13.5681 7.57903 13.6201 7.72704 13.7166C8.02821 13.9129 8.37535 14.1368 8.7591 14.3819C9.19169 14.6577 9.74902 14.9068 10.4149 15.1218C11.0956 15.3419 11.7899 15.4537 12.479 15.4537C13.1681 15.4537 13.8626 15.3419 14.5429 15.122C15.2094 14.9066 15.7665 14.6577 16.1997 14.3815C16.5924 14.1305 16.9298 13.9131 17.231 13.7166C17.379 13.6203 17.4703 13.5681 17.5216 13.5408C17.9428 13.552 18.3305 13.6268 18.6758 13.7634C19.0487 13.911 19.3653 14.108 19.6165 14.3483C19.885 14.6053 20.1284 14.9244 20.3399 15.2967C20.5618 15.6867 20.7407 16.092 20.8715 16.5008C21.0083 16.928 21.1233 17.3991 21.2133 17.901C21.3045 18.4104 21.3663 18.8892 21.3964 19.324V19.3244C21.4275 19.7667 21.4431 20.2291 21.4433 20.6989C21.4431 21.5997 21.1887 22.2799 20.6651 22.778Z" fill="white"/>
</svg>
