<svg width="23" height="13" viewBox="0 0 23 13" fill="none" xmlns="http://www.w3.org/2000/svg">
<path fill-rule="evenodd" clip-rule="evenodd" d="M22.3185 0.969663C22.0351 0.77076 20.9419 0.77076 19.8891 0.77076C18.7959 0.81054 17.7027 0.810536 17.4598 0.890097C17.2168 0.969658 16.6905 2.20286 16.0426 3.51562C15.2733 4.94773 14.3016 6.34005 13.7347 6.34005C12.9654 6.34005 13.1274 3.99298 13.2083 2.20285C13.2083 1.04921 13.0464 0.691199 12.844 0.571857C12.4391 0.293392 11.3053 0.0149177 11.3053 0.0149177C11.3053 0.0149177 7.90421 -0.223766 7.41833 1.20834C8.06617 1.2879 9.19987 1.08901 8.75448 5.54444C8.71399 5.74334 8.22811 7.61303 6.64902 5.10685C6.24412 4.47036 4.74601 0.770757 4.21964 0.730977C2.47859 0.691196 0.737542 0.611635 0.130197 0.92988C-0.436657 1.24813 0.89951 3.79408 3.12644 7.21522C4.94847 10.0396 6.85147 12.2276 10.1716 12.7447C10.8195 12.8243 12.439 12.8641 12.9654 12.6254C13.2893 12.4663 12.8844 10.0396 14.0586 9.80096C14.585 9.7214 16.6095 12.3469 17.3788 12.6254C17.8646 12.8243 18.8769 12.9039 19.9296 12.8243C21.0633 12.7845 22.359 12.9436 22.4805 12.1878C22.7639 10.517 19.0389 8.32908 18.9579 7.29478C18.8769 6.53895 20.294 5.18641 21.0633 4.15212C21.8731 2.99848 22.8854 1.44703 22.3185 0.969663Z" fill="#AD2131"/>
</svg>
